<svg width="65" height="64" viewBox="0 0 65 64" fill="none" xmlns="http://www.w3.org/2000/svg">
<g clip-path="url(#clip0_11:570)">
<path d="M64.0017 32.196C64.0017 14.412 49.6737 -0.0039978 32.0017 -0.0039978C14.3217 2.19746e-06 -0.00634766 14.412 -0.00634766 32.2C-0.00634766 48.268 11.6977 61.588 26.9937 64.004V41.504H18.8737V32.2H27.0017V25.1C27.0017 17.032 31.7817 12.576 39.0897 12.576C42.5937 12.576 46.2537 13.204 46.2537 13.204V21.124H42.2177C38.2457 21.124 37.0057 23.608 37.0057 26.156V32.196H45.8777L44.4617 41.5H37.0017V64C52.2977 61.584 64.0017 48.264 64.0017 32.196Z" fill="black" fill-opacity="0.5"/>
</g>
<defs>
<clipPath id="clip0_11:570">
<rect width="64" height="64" fill="white" transform="translate(0.00146484)"/>
</clipPath>
</defs>
</svg>
