<svg width="65" height="64" viewBox="0 0 65 64" fill="none" xmlns="http://www.w3.org/2000/svg">
<g clip-path="url(#clip0_11:573)">
<path fill-rule="evenodd" clip-rule="evenodd" d="M32.0015 0C14.3215 0 0.00146484 14.32 0.00146484 32C0.00146484 46.16 9.16146 58.12 21.8815 62.36C23.4815 62.64 24.0815 61.68 24.0815 60.84C24.0815 60.08 24.0415 57.56 24.0415 54.88C16.0015 56.36 13.9215 52.92 13.2815 51.12C12.9215 50.2 11.3615 47.36 10.0015 46.6C8.88146 46 7.28146 44.52 9.96146 44.48C12.4815 44.44 14.2815 46.8 14.8815 47.76C17.7615 52.6 22.3615 51.24 24.2015 50.4C24.4815 48.32 25.3215 46.92 26.2415 46.12C19.1215 45.32 11.6815 42.56 11.6815 30.32C11.6815 26.84 12.9215 23.96 14.9615 21.72C14.6415 20.92 13.5215 17.64 15.2815 13.24C15.2815 13.24 17.9615 12.4 24.0815 16.52C26.6415 15.8 29.3615 15.44 32.0815 15.44C34.8015 15.44 37.5215 15.8 40.0815 16.52C46.2015 12.36 48.8815 13.24 48.8815 13.24C50.6415 17.64 49.5215 20.92 49.2015 21.72C51.2415 23.96 52.4815 26.8 52.4815 30.32C52.4815 42.6 45.0015 45.32 37.8815 46.12C39.0415 47.12 40.0415 49.04 40.0415 52.04C40.0415 56.32 40.0015 59.76 40.0015 60.84C40.0015 61.68 40.6015 62.68 42.2015 62.36C48.5539 60.2153 54.0739 56.1325 57.9846 50.6863C61.8952 45.2401 63.9996 38.7048 64.0015 32C64.0015 14.32 49.6815 0 32.0015 0Z" fill="black" fill-opacity="0.5"/>
</g>
<defs>
<clipPath id="clip0_11:573">
<rect width="64" height="64" fill="white" transform="translate(0.00146484)"/>
</clipPath>
</defs>
</svg>
