<svg width="65" height="64" viewBox="0 0 65 64" fill="none" xmlns="http://www.w3.org/2000/svg">
<path d="M32.0015 0C14.33 0 0.00146484 14.3286 0.00146484 32C0.00146484 49.6714 14.33 64 32.0015 64C49.6729 64 64.0015 49.6714 64.0015 32C64.0015 14.3286 49.6729 0 32.0015 0ZM43.93 45.2571C41.03 47.9286 37.0729 49.5 32.3515 49.5C25.5158 49.5 19.6015 45.5786 16.7229 39.8643C15.5372 37.5 14.8586 34.8286 14.8586 32C14.8586 29.1714 15.5372 26.5 16.7229 24.1357C19.6015 18.4143 25.5158 14.4929 32.3515 14.4929C37.0658 14.4929 41.0229 16.2286 44.0586 19.05L39.0443 24.0714C37.23 22.3357 34.9229 21.4571 32.3586 21.4571C27.8015 21.4571 23.9443 24.5357 22.5658 28.6714C22.2158 29.7214 22.0158 30.8429 22.0158 32C22.0158 33.1571 22.2158 34.2786 22.5658 35.3286C23.9443 39.4643 27.8015 42.5429 32.3515 42.5429C34.7086 42.5429 36.7086 41.9214 38.2729 40.8714C40.13 39.6286 41.3586 37.7786 41.7658 35.5857H32.3515V28.8143H48.83C49.0372 29.9643 49.1443 31.1571 49.1443 32.3929C49.1443 37.7286 47.2372 42.2071 43.93 45.2571Z" fill="black" fill-opacity="0.5"/>
</svg>
